<mxfile host="app.diagrams.net" modified="2023-06-25T12:36:41.234Z" agent="Mozilla/5.0 (Windows NT 10.0; Win64; x64) AppleWebKit/537.36 (KHTML, like Gecko) Chrome/114.0.0.0 Safari/537.36" etag="kdrsu45jQXDl3mATEF-n" version="21.5.0" type="github">
  <diagram name="Page-1" id="XXeY9pck3LLLRnGUMVp8">
    <mxGraphModel dx="1050" dy="577" grid="1" gridSize="10" guides="1" tooltips="1" connect="1" arrows="1" fold="1" page="1" pageScale="1" pageWidth="850" pageHeight="1100" math="0" shadow="0">
      <root>
        <mxCell id="0" />
        <mxCell id="1" parent="0" />
        <mxCell id="rnpM-lxckVb2ZTdSl0F5-6" value="" style="edgeStyle=orthogonalEdgeStyle;rounded=0;orthogonalLoop=1;jettySize=auto;html=1;" edge="1" parent="1" source="rnpM-lxckVb2ZTdSl0F5-1" target="rnpM-lxckVb2ZTdSl0F5-3">
          <mxGeometry relative="1" as="geometry" />
        </mxCell>
        <mxCell id="rnpM-lxckVb2ZTdSl0F5-7" style="edgeStyle=orthogonalEdgeStyle;rounded=0;orthogonalLoop=1;jettySize=auto;html=1;entryX=0;entryY=0.5;entryDx=0;entryDy=0;" edge="1" parent="1" source="rnpM-lxckVb2ZTdSl0F5-1" target="rnpM-lxckVb2ZTdSl0F5-2">
          <mxGeometry relative="1" as="geometry" />
        </mxCell>
        <mxCell id="rnpM-lxckVb2ZTdSl0F5-8" style="edgeStyle=orthogonalEdgeStyle;rounded=0;orthogonalLoop=1;jettySize=auto;html=1;entryX=0;entryY=0.5;entryDx=0;entryDy=0;" edge="1" parent="1" source="rnpM-lxckVb2ZTdSl0F5-1" target="rnpM-lxckVb2ZTdSl0F5-4">
          <mxGeometry relative="1" as="geometry" />
        </mxCell>
        <mxCell id="rnpM-lxckVb2ZTdSl0F5-1" value="&lt;font style=&quot;font-size: 18px;&quot;&gt;Server&lt;/font&gt;" style="rounded=1;whiteSpace=wrap;html=1;" vertex="1" parent="1">
          <mxGeometry x="25" y="280" width="120" height="60" as="geometry" />
        </mxCell>
        <mxCell id="rnpM-lxckVb2ZTdSl0F5-15" style="edgeStyle=orthogonalEdgeStyle;rounded=0;orthogonalLoop=1;jettySize=auto;html=1;exitX=1;exitY=0.5;exitDx=0;exitDy=0;" edge="1" parent="1" source="rnpM-lxckVb2ZTdSl0F5-2">
          <mxGeometry relative="1" as="geometry">
            <mxPoint x="460" y="150" as="targetPoint" />
          </mxGeometry>
        </mxCell>
        <mxCell id="rnpM-lxckVb2ZTdSl0F5-2" value="&lt;font size=&quot;3&quot;&gt;/&lt;/font&gt;" style="rounded=1;whiteSpace=wrap;html=1;" vertex="1" parent="1">
          <mxGeometry x="225" y="120" width="120" height="60" as="geometry" />
        </mxCell>
        <mxCell id="rnpM-lxckVb2ZTdSl0F5-14" style="edgeStyle=orthogonalEdgeStyle;rounded=0;orthogonalLoop=1;jettySize=auto;html=1;exitX=1;exitY=0.5;exitDx=0;exitDy=0;" edge="1" parent="1" source="rnpM-lxckVb2ZTdSl0F5-3" target="rnpM-lxckVb2ZTdSl0F5-10">
          <mxGeometry relative="1" as="geometry" />
        </mxCell>
        <mxCell id="rnpM-lxckVb2ZTdSl0F5-3" value="&lt;font size=&quot;3&quot;&gt;/ hello&lt;/font&gt;" style="rounded=1;whiteSpace=wrap;html=1;" vertex="1" parent="1">
          <mxGeometry x="225" y="280" width="120" height="60" as="geometry" />
        </mxCell>
        <mxCell id="rnpM-lxckVb2ZTdSl0F5-13" style="edgeStyle=orthogonalEdgeStyle;rounded=0;orthogonalLoop=1;jettySize=auto;html=1;exitX=1;exitY=0.5;exitDx=0;exitDy=0;entryX=0;entryY=0.5;entryDx=0;entryDy=0;" edge="1" parent="1" source="rnpM-lxckVb2ZTdSl0F5-4" target="rnpM-lxckVb2ZTdSl0F5-11">
          <mxGeometry relative="1" as="geometry" />
        </mxCell>
        <mxCell id="rnpM-lxckVb2ZTdSl0F5-4" value="&lt;font style=&quot;font-size: 18px;&quot;&gt;/ form&lt;/font&gt;" style="rounded=1;whiteSpace=wrap;html=1;" vertex="1" parent="1">
          <mxGeometry x="225" y="460" width="120" height="60" as="geometry" />
        </mxCell>
        <mxCell id="rnpM-lxckVb2ZTdSl0F5-9" value="&lt;font size=&quot;3&quot;&gt;index.html&lt;/font&gt;" style="rounded=1;whiteSpace=wrap;html=1;" vertex="1" parent="1">
          <mxGeometry x="465" y="120" width="120" height="60" as="geometry" />
        </mxCell>
        <mxCell id="rnpM-lxckVb2ZTdSl0F5-10" value="&lt;font size=&quot;3&quot;&gt;hello func&lt;/font&gt;" style="rounded=1;whiteSpace=wrap;html=1;" vertex="1" parent="1">
          <mxGeometry x="465" y="280" width="120" height="60" as="geometry" />
        </mxCell>
        <mxCell id="rnpM-lxckVb2ZTdSl0F5-16" style="edgeStyle=orthogonalEdgeStyle;rounded=0;orthogonalLoop=1;jettySize=auto;html=1;exitX=1;exitY=0.5;exitDx=0;exitDy=0;entryX=0;entryY=0.5;entryDx=0;entryDy=0;" edge="1" parent="1" source="rnpM-lxckVb2ZTdSl0F5-11" target="rnpM-lxckVb2ZTdSl0F5-12">
          <mxGeometry relative="1" as="geometry" />
        </mxCell>
        <mxCell id="rnpM-lxckVb2ZTdSl0F5-11" value="&lt;font size=&quot;3&quot;&gt;form func&lt;/font&gt;" style="rounded=1;whiteSpace=wrap;html=1;" vertex="1" parent="1">
          <mxGeometry x="465" y="460" width="120" height="60" as="geometry" />
        </mxCell>
        <mxCell id="rnpM-lxckVb2ZTdSl0F5-12" value="&lt;font size=&quot;3&quot;&gt;form.html&lt;/font&gt;" style="rounded=1;whiteSpace=wrap;html=1;" vertex="1" parent="1">
          <mxGeometry x="705" y="460" width="120" height="60" as="geometry" />
        </mxCell>
      </root>
    </mxGraphModel>
  </diagram>
</mxfile>
